<svg id="Layer_1" data-name="Layer 1" xmlns="http://www.w3.org/2000/svg" viewBox="0 0 2000 2000">
    <defs>
        <style>.cls-1{fill:#bfceff;}.cls-2{fill:#738dff;}.cls-3{fill:#50ccc0;}</style>
    </defs>
    <rect class="cls-1" x="90.01" y="130.64" width="1807.54" height="124.36"/>
    <polygon class="cls-2"
             points="681.59 1613.22 681.59 1218.43 542.81 1218.43 542.81 1428 237.06 1096.88 91.13 1096.88 91.13 1613.4 230.39 1613.4 230.39 1275.74 541.34 1613.52 681.59 1613.22"/>
    <rect class="cls-2" x="760.57" y="662.84" width="346.97" height="119.23"/>
    <path class="cls-2"
          d="M1591.44,747.44l74.62,129.75c-27.29-5.65-55.35-8-85-8-24.86,0-49.72,1.56-72.84,6.37l-57-100.08h-81.65v146.6c-20,9.55-38.46,21.61-56,35.17a293.74,293.74,0,0,0-36.09,30.51c-7.27,5.53-12.92,10.28-17.55,16a377.36,377.36,0,0,0-29,32.07V656.89h254.79c14.46,0,26.46-7.19,37.64-21.55,10.46-13.66,16-32.09,16-54.51,0-23.33-6.35-42.58-18.38-56.13s-25.61-20.09-39.23-20.09H759V386.16l733.23.9c27.18,0,52.8,5.55,75.34,15.93,23.12,11.22,43.93,26.48,60,44.11,16.77,18.37,29.55,40,39.25,63.16a186,186,0,0,1,14.44,70.57q0,49.23-21.7,91.29A175.56,175.56,0,0,1,1600.37,741Z"/>
    <path class="cls-2"
          d="M1247.09,1613.46H760.57V1494.13h411.18a385.42,385.42,0,0,0,38.42,68l17.65,26.46H1227C1232.58,1596.57,1239.9,1604.54,1247.09,1613.46Z"/>
    <path class="cls-2"
          d="M1897.56,386.16v618.43A395.39,395.39,0,0,0,1803,929.35c-13.62-8-26.4-15.23-40.08-21.64a10.44,10.44,0,0,0-4.87-1.62V386.16Z"/>
    <polygon class="cls-2"
             points="1152.48 1059.63 1152.48 940.12 681.59 940.12 681.59 386.52 523.84 386.52 386.36 684.48 249.72 386.52 91.13 386.52 91.13 938.26 230.39 938.26 230.39 599.06 350.64 865.07 422.23 865.07 542.81 599.24 542.81 1059.81 1152.48 1059.63"/>
    <path class="cls-2"
          d="M1132.27,1314.78a446.12,446.12,0,0,1,10.77-96.35H760.57v119.43h372.88C1133,1330.19,1132.27,1322.57,1132.27,1314.78Z"/>
    <path class="cls-3"
          d="M1815.91,1544.49A340.42,340.42,0,0,0,1885,1439.84a328.62,328.62,0,0,0,24.42-107.57c.24-5.47.24-10.7.24-16.11,0-5.06,0-10.05-.24-15.64a342.14,342.14,0,0,0-89.84-213.34,320.15,320.15,0,0,0-74.5-59.48,279,279,0,0,0-29.61-16.12c-40.14-18.85-85.69-28.29-134.87-28.29-48.4,0-93.53,9.14-133.73,27.21a302,302,0,0,0-65.59,38.34,182.23,182.23,0,0,0-27.06,22.33,100.1,100.1,0,0,0-13,11.92,328.82,328.82,0,0,0-69.87,105.33,319.39,319.39,0,0,0-24.8,123.92,327.1,327.1,0,0,0,24,123.33,316.84,316.84,0,0,0,33.54,63.21l13.5,19.4h-1c5.53,6.94,11.66,14.37,18.73,22.4l12.9,11.84c26.06,25.68,57.57,47.38,93.25,64.4,40,18.61,85.51,28.17,135.15,28.17,48.34,0,93.43-9,133.62-27.23a349,349,0,0,0,62.91-36.57A316.3,316.3,0,0,0,1815.91,1544.49Zm-237.43-35.44c-105.67,0-191.35-85.92-191.35-191.48s85.68-191.25,191.35-191.25,191.34,85.74,191.34,191.25S1684.08,1509.05,1578.48,1509.05Z"/>
    <rect class="cls-1" x="91.25" y="1745.11" width="1806.31" height="124.36"/>
</svg>